<?xml version="1.0" standalone="no"?>
<!DOCTYPE svg PUBLIC "-//W3C//DTD SVG 20010904//EN"
 "http://www.w3.org/TR/2001/REC-SVG-20010904/DTD/svg10.dtd">
<svg version="1.0" xmlns="http://www.w3.org/2000/svg"
 width="2256.000000pt" height="2250.000000pt" viewBox="0 0 2256.000000 2250.000000"
 preserveAspectRatio="xMidYMid meet">
  <rect x="0" y="0" width="2256" height="2250" rx="420" ry="420" fill="#ADC994"/>


<g transform="translate(0.000000,2250.000000) scale(0.100000,-0.100000)"
fill="#FFFFFF" stroke="none">
<path d="M11025 18319 c-621 -36 -1338 -174 -1960 -376 -1408 -457 -2511
-1229 -3338 -2338 -452 -606 -910 -1422 -1173 -2092 -145 -369 -265 -769 -295
-983 -41 -294 13 -712 121 -936 74 -152 256 -292 408 -312 168 -23 315 40 505
218 261 244 454 592 605 1091 28 90 91 317 142 503 50 187 116 416 147 509 31
95 52 172 47 177 -5 5 -54 -74 -113 -181 -57 -104 -106 -188 -108 -186 -10 11
38 141 108 293 59 130 86 201 101 272 61 291 230 638 442 909 88 112 111 153
87 153 -19 0 -145 -137 -259 -280 -146 -184 -142 -180 -142 -153 0 24 207 338
385 583 70 96 118 172 117 183 -6 34 352 420 545 588 160 138 281 225 409 293
111 58 121 66 147 114 32 60 105 109 278 191 376 178 1125 450 1484 540 607
153 1248 219 1990 208 685 -11 1237 -82 1755 -228 496 -140 1093 -416 1560
-723 329 -217 576 -420 885 -730 326 -327 576 -635 850 -1051 348 -527 473
-796 700 -1505 116 -365 196 -586 239 -663 30 -54 47 -117 32 -117 -2 0 -25 9
-50 20 l-46 19 0 -39 c0 -43 47 -1015 53 -1117 4 -57 3 -64 -20 -78 -14 -9
-27 -15 -29 -12 -3 3 -12 103 -20 223 -16 256 -28 368 -55 519 -50 279 -175
657 -252 760 -10 13 -5 -27 19 -130 65 -290 113 -633 135 -960 15 -216 6 -724
-16 -945 -87 -886 -319 -1680 -692 -2375 -310 -576 -661 -1036 -1179 -1545
-409 -402 -738 -668 -1109 -898 -171 -106 -528 -285 -720 -362 -71 -29 -169
-72 -216 -95 -448 -225 -986 -349 -1918 -440 -180 -18 -686 -20 -916 -4 -965
65 -2420 585 -3224 1151 -387 272 -705 579 -1060 1023 -108 135 -134 171 -215
298 -35 55 -60 71 -68 45 -8 -24 -246 321 -395 572 -162 273 -276 497 -448
878 -50 112 -95 203 -101 202 -20 -3 -3 -65 47 -172 48 -103 53 -119 54 -183
0 -70 1 -72 72 -186 117 -187 391 -758 353 -734 -16 10 -136 198 -216 337 -79
139 -242 464 -339 678 -62 137 -70 149 -85 134 -13 -13 27 -130 110 -324 180
-420 354 -733 688 -1233 80 -119 142 -221 138 -225 -12 -11 -42 31 -268 368
-116 173 -223 331 -238 350 -15 19 -123 232 -241 472 -117 241 -214 436 -216
435 -5 -6 168 -551 202 -632 54 -130 102 -222 271 -516 85 -148 154 -273 154
-279 0 -28 -26 2 -108 128 -318 488 -613 1120 -819 1756 -116 357 -133 406
-127 361 23 -166 265 -1044 379 -1375 183 -529 406 -917 853 -1480 186 -234
283 -342 506 -565 290 -290 530 -491 856 -719 419 -293 940 -567 1440 -756
1110 -420 2345 -562 3540 -409 1354 173 2598 700 3609 1527 328 269 683 623
956 957 845 1030 1374 2279 1519 3585 41 369 46 924 12 1270 -71 713 -276
1530 -539 2155 -160 380 -300 628 -607 1075 -80 118 -183 276 -228 350 -44 74
-103 167 -131 206 -91 130 -418 464 -453 464 -10 0 -18 -3 -18 -8 0 -4 72 -79
161 -167 179 -178 312 -338 285 -343 -9 -2 -28 11 -44 30 -236 286 -719 708
-1226 1072 -341 245 -545 367 -847 506 -267 123 -539 260 -539 272 0 52 244
-35 600 -213 243 -121 393 -218 780 -500 326 -238 368 -265 381 -252 20 20 4
47 -66 106 -100 85 -228 173 -492 341 -128 81 -235 152 -238 157 -4 5 -2 15 2
23 7 12 27 4 108 -43 444 -256 985 -680 1402 -1099 179 -180 265 -283 441
-530 168 -234 265 -358 270 -344 2 6 -1 28 -7 48 -6 21 -9 40 -7 42 7 6 118
-165 188 -288 228 -402 411 -827 599 -1393 66 -198 126 -371 135 -385 31 -55
7 89 -51 298 -267 965 -652 1717 -1241 2425 -150 180 -586 614 -778 773 -88
74 -226 175 -310 229 -231 147 -279 185 -323 256 -22 35 -52 68 -69 77 -16 8
-31 16 -33 17 -3 2 5 10 17 19 12 8 20 19 17 24 -3 4 -53 36 -112 71 -59 34
-102 64 -96 66 21 7 275 -129 408 -218 72 -48 234 -170 360 -271 323 -259 476
-371 487 -360 5 5 -19 34 -64 72 -40 35 -113 103 -163 150 -182 176 -323 290
-575 468 -134 94 -233 145 -324 169 -37 10 -66 21 -66 26 0 4 7 18 15 30 14
22 13 24 -53 56 -37 18 -141 76 -232 129 -197 114 -309 168 -558 266 -1145
454 -2575 637 -3857 495 -182 -20 -243 -31 -502 -89 -119 -27 -146 -30 -159
-19 -12 10 -13 14 -2 20 18 10 430 92 618 123 400 66 585 80 1243 96 272 6
416 6 434 -1 33 -12 53 -5 53 19 0 17 -14 20 -142 31 -377 31 -797 38 -1113
20z m3605 -1212 c77 -34 185 -101 210 -132 14 -16 13 -17 -10 -11 -51 15 -316
176 -290 176 8 0 49 -15 90 -33z"/>
<path d="M11578 15500 c-206 -37 -421 -176 -596 -385 -232 -276 -375 -604
-389 -890 -9 -185 29 -300 127 -388 78 -70 275 -137 406 -137 133 0 183 31
325 198 152 177 235 248 423 361 171 102 241 154 336 251 143 145 196 258 188
406 -4 67 -10 94 -37 149 -77 156 -328 358 -516 415 -80 24 -198 33 -267 20z"/>
<path d="M10920 12924 c-19 -2 -84 -9 -145 -14 -406 -39 -754 -191 -978 -429
-221 -235 -358 -567 -408 -991 -18 -152 -15 -542 5 -735 47 -435 157 -929 313
-1400 66 -202 141 -407 152 -418 5 -5 11 189 14 430 7 546 31 871 93 1247 59
362 129 563 266 769 66 98 105 172 261 498 97 203 143 275 221 347 83 75 144
96 281 96 90 -1 127 -6 200 -28 189 -57 341 -155 428 -278 118 -166 159 -311
197 -690 32 -321 45 -360 161 -477 169 -171 352 -248 491 -207 148 43 246 211
303 522 116 628 -21 1135 -388 1429 -199 160 -454 262 -773 310 -103 16 -602
29 -694 19z"/>
<path d="M14942 11765 c-235 -73 -676 -532 -1052 -1095 -109 -163 -211 -333
-266 -442 -20 -40 -59 -98 -87 -128 -27 -30 -142 -161 -256 -290 -113 -129
-257 -287 -319 -352 l-113 -116 -72 -16 c-40 -9 -236 -51 -437 -92 -445 -91
-631 -133 -820 -184 -149 -40 -456 -142 -615 -203 -459 -177 -942 -434 -1310
-697 -44 -31 -145 -90 -225 -132 -245 -127 -466 -270 -695 -452 -439 -349
-546 -669 -301 -905 115 -110 246 -155 446 -154 256 2 417 11 500 28 247 49
516 172 975 445 99 59 263 149 365 200 478 239 1335 731 1809 1038 l26 17 -26
-45 c-145 -251 -232 -479 -264 -690 -46 -297 26 -623 188 -865 58 -86 182
-205 266 -255 237 -141 549 -155 807 -36 345 160 641 566 779 1071 123 450
126 872 9 1465 -41 211 -66 306 -99 371 -14 26 -25 52 -25 57 0 6 29 29 65 52
120 79 158 147 135 247 -13 59 -79 142 -130 163 l-30 12 153 106 c336 232 682
504 783 614 73 81 133 247 175 488 20 111 17 378 -4 464 -34 137 -101 244
-186 297 -49 32 -83 35 -149 14z m-1138 -2902 c59 -249 86 -474 86 -727 0
-212 -21 -399 -64 -570 -100 -396 -294 -690 -534 -809 -85 -42 -86 -42 -196
-42 -100 0 -117 3 -170 27 -81 38 -171 133 -218 228 -153 310 -84 640 242
1160 210 335 335 464 590 613 36 21 83 65 138 130 46 53 88 97 92 97 5 0 20
-48 34 -107z m-2111 -472 c-284 -205 -821 -546 -1459 -924 -310 -183 -858
-412 -1150 -480 -88 -21 -96 -10 -43 53 180 215 388 421 580 576 112 90 139
106 279 168 369 163 822 322 1735 610 102 32 106 32 58 -3z"/>
<path d="M7530 10127 c0 -13 124 -374 177 -517 249 -664 517 -1109 729 -1207
156 -72 304 9 304 166 -1 253 -341 795 -780 1245 -215 220 -338 316 -405 316
-14 0 -25 -1 -25 -3z"/>
</g>
</svg>
